<svg id="Capa_1" data-name="Capa 1" xmlns="http://www.w3.org/2000/svg" viewBox="0 0 44.94 174.63"><defs><style>.cls-1{fill:#6c9c9a;}.cls-2{fill:#2aaea1;}.cls-3{fill:#121212;}.cls-4{fill:#203d3a;}.cls-5{fill:#fff;}.cls-6{stroke:#fff;}.cls-6,.cls-7{stroke-miterlimit:10;stroke-width:2.83px;}.cls-7{fill:none;stroke:#2aaea1;}</style></defs><title>hello-demo-music-label-features-character</title><path id="MANO" class="cls-1" d="M266.56,153.7l1,1.1a1.83,1.83,0,0,1,.44,1.48l-.59,3.94a.43.43,0,0,1-.33.36h0a.25.25,0,0,1-.3-.2l-.31-1.71a.09.09,0,0,0-.19,0l-.25,3.85a.47.47,0,0,1-.46.44h-.61a.79.79,0,0,1-.66-.34,10.84,10.84,0,0,1-1.93-5,6.55,6.55,0,0,1,1.37-4.23l.92-.35a1.3,1.3,0,0,1,1.18.12Z" transform="translate(-262.32 -61.43)"/><path id="MANO_DERECHA" data-name="MANO DERECHA" class="cls-1" d="M267.06,151.18l-.51,3.33a1.54,1.54,0,0,1-2.83-.56l.54-3.23Z" transform="translate(-262.32 -61.43)"/><path class="cls-2" d="M267.2,152.95l-4.13-.46,4.52-50.63s-.73-15.25,7.82-14.42,4.72,16.28,4.72,16.28Z" transform="translate(-262.32 -61.43)"/><polygon id="TOBILLO_DERECHO" data-name="TOBILLO DERECHO" class="cls-1" points="18.25 171.07 21.47 171.07 21.39 165.21 18.16 165.21 18.25 171.07"/><path id="PIERNA_IZQUIERDA" data-name="PIERNA IZQUIERDA" class="cls-3" d="M288.4,134.41l-4.56,97.53h-3.33c-5.36-35.35-11.71-66.55-12.21-97.37Z" transform="translate(-262.32 -61.43)"/><polygon id="TOBILLO_IZQUIERDO" data-name="TOBILLO IZQUIERDO" class="cls-1" points="34.92 171.07 38.14 171.07 38.06 165.21 34.84 165.21 34.92 171.07"/><path id="PIERNA_DERECHA" data-name="PIERNA DERECHA" d="M306,134.9l-5.44,97h-3.33c-5.36-35.35-12.72-67.34-12.39-96.88Z" transform="translate(-262.32 -61.43)"/><path id="ZAPATO_DERECHO" data-name="ZAPATO DERECHO" d="M280.51,232.4h3.28V236l-7.67.07C275.64,233.55,278.38,234.89,280.51,232.4Z" transform="translate(-262.32 -61.43)"/><path id="ZAPATO_IZQUIERDO" data-name="ZAPATO IZQUIERDO" d="M297.18,232.4h3.28V236l-7.67.07C292.32,233.55,295.05,234.89,297.18,232.4Z" transform="translate(-262.32 -61.43)"/><rect id="CUELLO_CHAQUETA" data-name="CUELLO CHAQUETA" class="cls-4" x="15.08" y="19.06" width="19.55" height="3.86"/><path id="CUELLO" class="cls-1" d="M282.25,82.43s.59,3.39,3.51,4c2.69.61,6.17-4,6.17-4l-2.22-12.11a1.52,1.52,0,0,0-1.63-1.82C286.59,68.43,282.25,82.43,282.25,82.43Z" transform="translate(-262.32 -61.43)"/><polygon id="CAMISA" class="cls-5" points="16.65 22.58 7.05 35.03 6.87 73.33 42.75 73.33 42.75 38.29 32.79 22.28 22.83 24.04 16.65 22.58"/><rect id="CINTO" x="18.7" y="69.94" width="7.77" height="3.95"/><polygon id="CUELLO_DERECHO" data-name="CUELLO DERECHO" class="cls-5" points="22.83 24.04 20.34 27.95 17.83 24.47 19.5 20.57 22.83 24.04"/><circle id="BOTÓN" class="cls-2" cx="22.59" cy="72.03" r="0.95"/><polygon id="CUELLO_IZQUIERDO" data-name="CUELLO IZQUIERDO" class="cls-5" points="22.84 24.04 25.51 27.95 32.56 24.47 30.89 20.57 22.84 24.04"/><g id="CORBATA"><polygon id="CORBATA-2" data-name="CORBATA" class="cls-6" points="25.09 62.03 24.02 29.18 21.63 29.18 20.75 62.03 25.09 62.03"/><polygon id="CORBATA-3" data-name="CORBATA" points="23.89 29.28 25.09 26.3 22.83 24.04 20.75 26.48 21.84 29.35 23.89 29.28"/></g><g id="CHAQUETA_IZQUIERDA" data-name="CHAQUETA IZQUIERDA"><path class="cls-4" d="M296.74,84.42l-7.95,2.35v48.54l17.46.06s1.51-17.88.67-29.53C305.57,87.1,296.74,84.42,296.74,84.42Z" transform="translate(-262.32 -61.43)"/></g><g id="BOLSILLO_IZQUIERDO" data-name="BOLSILLO IZQUIERDO"><path class="cls-7" d="M300.54,125.42v2.28a2.29,2.29,0,0,1-2.28,2.28h-1.14a2.29,2.29,0,0,1-2.28-2.28v-2.28Z" transform="translate(-262.32 -61.43)"/><rect class="cls-7" x="32.52" y="62.21" width="5.71" height="1.78"/></g><polygon id="CUELLO_CHAQUETA-2" data-name="CUELLO CHAQUETA" class="cls-2" points="26.48 26.18 34.63 22.94 34.63 19.07 26.48 22.31 26.48 26.18"/><polygon id="CUELLO_CHAQUETA-3" data-name="CUELLO CHAQUETA" class="cls-2" points="18.7 25.45 15.08 22.94 15.08 19.07 18.7 21.59 18.7 25.45"/><g id="CHAQUETA_DERECHA" data-name="CHAQUETA DERECHA"><path class="cls-4" d="M277.61,84.42,281,86.59v48.84l-12.8-.07s-1.28-17.82-.43-29.53C269.14,87.1,277.61,84.42,277.61,84.42Z" transform="translate(-262.32 -61.43)"/></g><g id="BOLSILLO_DERECHO" data-name="BOLSILLO DERECHO"><path class="cls-7" d="M277.06,125.42v2.28a2.29,2.29,0,0,1-2.28,2.28h-1.14a2.29,2.29,0,0,1-2.28-2.28v-2.28Z" transform="translate(-262.32 -61.43)"/><rect class="cls-7" x="9.03" y="62.21" width="5.71" height="1.78"/></g><path id="MANO_DERECHA-2" data-name="MANO DERECHA" class="cls-1" d="M306.14,150.71l.32,3.35a1.54,1.54,0,0,1-2.88.14l-.27-3.26Z" transform="translate(-262.32 -61.43)"/><path class="cls-2" d="M306.71,152.39l-4.11.56-7.95-50.21s-4.42-14.61,4.07-15.89,8.54,14.64,8.54,14.64Z" transform="translate(-262.32 -61.43)"/><path id="CABEZA" class="cls-1" d="M281.44,71.25H279.7l1.74-6.46s.37-3.35,5.13-3.35c3.44,0,3.76,3.46,3.48,6.23a1.36,1.36,0,1,1-.44,2.67c-.09.38-.15.64-.16.7a15.3,15.3,0,0,1-1.72,3.81,4.89,4.89,0,0,1-3.41,2.42,3.7,3.7,0,0,1-2.36-.75,2.52,2.52,0,0,1-.86-2.3C281.25,72.61,281.44,71.25,281.44,71.25Z" transform="translate(-262.32 -61.43)"/></svg>